<svg xmlns="http://www.w3.org/2000/svg" viewBox="0 0 800 500" width="800" height="500" role="img" aria-label="Q8 BOOKING RESORT placeholder cover">
    <defs>
        <linearGradient id="bg" x1="0" y1="0" x2="1" y2="1">
            <stop offset="0%" stop-color="#14141D"/>
            <stop offset="100%" stop-color="#0A0A0F"/>
        </linearGradient>
        <radialGradient id="glow" cx="50%" cy="30%" r="60%">
            <stop offset="0%" stop-color="#22D3EE" stop-opacity="0.22"/>
            <stop offset="100%" stop-color="#22D3EE" stop-opacity="0"/>
        </radialGradient>
    </defs>
    <rect width="800" height="500" fill="url(#bg)"/>
    <rect width="800" height="500" fill="url(#glow)"/>
    <g stroke="#ffffff" stroke-opacity="0.05">
        <path d="M0 100H800M0 200H800M0 300H800M0 400H800M100 0V500M200 0V500M300 0V500M400 0V500M500 0V500M600 0V500M700 0V500"/>
    </g>
    
        <g stroke="{accent}" fill="none" stroke-width="2">
            <rect x="140" y="180" width="520" height="320" rx="16" opacity="0.85"/>
            <path d="M140 260H660" opacity="0.6"/>
            <path d="M220 140V200M580 140V200" stroke-linecap="round"/>
        </g>
        <g fill="{accent}" opacity="0.75">
            <rect x="180" y="300" width="60" height="40" rx="6"/>
            <rect x="280" y="300" width="60" height="40" rx="6"/>
            <rect x="380" y="380" width="60" height="40" rx="6"/>
            <rect x="480" y="300" width="60" height="40" rx="6"/>
        </g>
    <text x="40" y="452" font-family="ui-monospace, monospace" font-size="20" letter-spacing="7" fill="#22D3EE" opacity="0.9">Q8 BOOKING RESORT</text>
    <text x="760" y="452" text-anchor="end" font-family="ui-monospace, monospace" font-size="14" letter-spacing="4" fill="#6F6F7D">COVER PLACEHOLDER</text>
</svg>
